<?xml version="1.0" standalone="no"?>
<!DOCTYPE svg PUBLIC "-//W3C//DTD SVG 20010904//EN"
 "http://www.w3.org/TR/2001/REC-SVG-20010904/DTD/svg10.dtd">
<svg version="1.0" xmlns="http://www.w3.org/2000/svg"
 width="1024.000000pt" height="1024.000000pt" viewBox="0 0 1024.000000 1024.000000"
 preserveAspectRatio="xMidYMid meet">
<metadata>
Created by potrace 1.15, written by Peter Selinger 2001-2017
</metadata>
<g transform="translate(0.000000,1024.000000) scale(0.100000,-0.100000)"
fill="#000000" stroke="none">
<path d="M4855 10234 c-1616 -87 -3092 -926 -3990 -2269 -475 -711 -747 -1470
-841 -2350 -22 -201 -25 -735 -6 -935 94 -982 429 -1860 1002 -2625 473 -631
1084 -1144 1785 -1500 185 -94 406 -189 582 -251 106 -38 135 -44 201 -44 122
1 194 41 238 135 l24 50 0 501 c0 275 -2 503 -5 505 -2 3 -57 -3 -121 -12
-478 -73 -866 -36 -1147 107 -94 48 -145 83 -221 155 -90 84 -160 191 -231
353 -148 339 -349 615 -535 734 -115 74 -164 115 -200 167 -80 116 4 173 241
163 136 -6 232 -37 352 -111 150 -94 268 -217 418 -439 119 -174 218 -279 342
-362 172 -114 328 -159 552 -159 156 0 277 21 425 72 150 52 149 52 156 91 37
231 134 450 258 587 l57 62 -33 5 c-18 3 -85 13 -148 22 -833 116 -1412 428
-1753 946 -264 401 -400 967 -384 1598 5 220 25 362 73 532 73 261 207 517
379 723 40 47 64 85 61 95 -74 226 -91 332 -90 575 0 262 30 439 115 678 38
104 33 102 197 94 298 -13 700 -178 1161 -474 l83 -54 167 40 c380 91 672 124
1101 125 462 1 781 -36 1193 -140 l98 -25 142 90 c463 292 850 441 1147 441
79 0 111 -4 119 -14 16 -19 67 -171 96 -286 82 -324 77 -694 -12 -976 l-29
-89 59 -70 c91 -108 200 -278 266 -415 181 -375 233 -767 176 -1323 -81 -786
-397 -1347 -950 -1687 -106 -66 -336 -173 -465 -218 -214 -74 -433 -126 -680
-162 -80 -11 -160 -23 -178 -26 l-33 -5 49 -54 c132 -144 217 -331 264 -581
23 -118 23 -124 20 -933 -3 -895 -4 -878 58 -953 48 -58 109 -82 205 -81 71 0
96 6 220 53 1254 470 2253 1374 2835 2565 772 1581 677 3453 -250 4945 -550
884 -1365 1587 -2315 1998 -491 212 -994 343 -1535 397 -149 15 -619 27 -765
19z"/>
</g>
</svg>
