<?xml version="1.0" standalone="no"?>
<!DOCTYPE svg PUBLIC "-//W3C//DTD SVG 20010904//EN"
 "http://www.w3.org/TR/2001/REC-SVG-20010904/DTD/svg10.dtd">
<svg version="1.0" xmlns="http://www.w3.org/2000/svg"
 width="980.000000pt" height="720.000000pt" viewBox="0 0 980.000000 720.000000"
 preserveAspectRatio="xMidYMid meet">
<metadata>
Created by potrace 1.15, written by Peter Selinger 2001-2017
</metadata>
<g transform="translate(0.000000,720.000000) scale(0.100000,-0.100000)"
fill="#000000" stroke="none">
<path d="M1070 7179 c-443 -44 -767 -275 -970 -693 -103 -212 -104 -235 -97
-3216 l6 -2345 39 -105 c75 -202 160 -339 297 -475 141 -141 293 -236 488
-304 l89 -31 3989 0 3988 0 76 30 c198 79 351 176 481 305 134 134 222 275
299 480 l37 100 2 2550 c1 2653 0 2729 -40 2882 -20 77 -116 260 -184 351
-189 254 -485 433 -768 464 -119 13 -7603 20 -7732 7z m7105 -908 l140 -6 -80
-61 c-258 -196 -2351 -1676 -3005 -2125 -305 -209 -273 -191 -301 -171 -233
160 -3045 2278 -3119 2348 l-25 24 3125 -1 c1719 -1 3188 -4 3265 -8z m-6599
-999 c357 -268 944 -710 1304 -983 1734 -1311 2046 -1543 2066 -1535 30 12
1233 860 2896 2043 559 398 1019 723 1021 723 8 0 16 -3813 9 -4122 -9 -327
-9 -327 -34 -365 -14 -21 -50 -57 -80 -81 l-55 -42 -3803 0 -3803 0 -53 44
c-76 62 -103 98 -116 153 -14 60 -24 4653 -10 4653 5 0 301 -219 658 -488z"/>
</g>
</svg>
